# xmcd
#
# Track frame offsets: 
#        150
#        10720
#        22951
#        31330
#        47946
#        62222
#        70112
#        77871
#        90492
#        101870
#        111247
#        121021
#        129357
#        140207
#        149835
#        161485
#        171991
#        181175
#        193224
#        203334
#
# Disc length: 2830 seconds
#
# Revision: 0
# Processed by: cddbd v1.5.2PL0 Copyright (c) Steve Scherf et al.
# Submitted via: ExactAudioCopyFreeDBPlugin 1.0
#
DISCID=1b0b0c14
DTITLE=Cash, Johnny - The Complete Releases 1957-1962 [CD4]
DYEAR=1960
DGENRE=Country
TTITLE0=Loading Coals
TTITLE1=Slow Rider
TTITLE2=Lumberjack
TTITLE3=Dorraine Of Ponchartrain
TTITLE4=Going To Memphis
TTITLE5=When Papa Played The Dobro
TTITLE6=Boss Jack
TTITLE7=Old Doc Brown
TTITLE8=Seasons Of My Heart
TTITLE9=I Feel Better All Over
TTITLE10=I Couldn't Keep From Crying
TTITLE11=Time Changes Everything
TTITLE12=My Shoes Keep Walking Back To You
TTITLE13=I'd Just Be Fool Enough To Fall
TTITLE14=Transfusion Blues
TTITLE15=Why Do You Punish Me For Loving You
TTITLE16=I Will Miss You When You Go
TTITLE17=I'm So Lonesome I Could Cry
TTITLE18=Just One More
TTITLE19=Honky Tonk Girl
EXTD=
EXTT0=
EXTT1=
EXTT2=
EXTT3=
EXTT4=
EXTT5=
EXTT6=
EXTT7=
EXTT8=
EXTT9=
EXTT10=
EXTT11=
EXTT12=
EXTT13=
EXTT14=
EXTT15=
EXTT16=
EXTT17=
EXTT18=
EXTT19=
PLAYORDER=
